<svg width="177" height="77" viewBox="0 0 177 77" fill="none" xmlns="http://www.w3.org/2000/svg">
<path d="M6.83496 48.6719V70H1.69336V48.6719H6.83496ZM15.126 57.5488V61.5039H5.37012V57.5488H15.126ZM15.9609 48.6719V52.6416H5.37012V48.6719H15.9609ZM23.0801 54.1504V70H18.1289V54.1504H23.0801ZM17.8359 50.0635C17.8359 49.3604 18.0898 48.7842 18.5977 48.335C19.1055 47.8857 19.7646 47.6611 20.5752 47.6611C21.3857 47.6611 22.0449 47.8857 22.5527 48.335C23.0605 48.7842 23.3145 49.3604 23.3145 50.0635C23.3145 50.7666 23.0605 51.3428 22.5527 51.792C22.0449 52.2412 21.3857 52.4658 20.5752 52.4658C19.7646 52.4658 19.1055 52.2412 18.5977 51.792C18.0898 51.3428 17.8359 50.7666 17.8359 50.0635ZM31.3418 47.5V70H26.3906V47.5H31.3418ZM42.0645 70.293C40.7754 70.293 39.623 70.0928 38.6074 69.6924C37.5918 69.2822 36.7324 68.7207 36.0293 68.0078C35.3359 67.2949 34.8037 66.4746 34.4326 65.5469C34.0713 64.6191 33.8906 63.6377 33.8906 62.6025V62.0459C33.8906 60.8838 34.0518 59.8096 34.374 58.8232C34.6963 57.8271 35.1748 56.958 35.8096 56.2158C36.4443 55.4736 37.2402 54.8975 38.1973 54.4873C39.1543 54.0674 40.2676 53.8574 41.5371 53.8574C42.6602 53.8574 43.666 54.0381 44.5547 54.3994C45.4434 54.7607 46.1953 55.2783 46.8105 55.9521C47.4355 56.626 47.9092 57.4414 48.2314 58.3984C48.5635 59.3555 48.7295 60.4297 48.7295 61.6211V63.6279H35.7803V60.5371H43.9102V60.1562C43.9199 59.6289 43.8271 59.1797 43.6318 58.8086C43.4463 58.4375 43.1729 58.1543 42.8115 57.959C42.4502 57.7637 42.0107 57.666 41.4932 57.666C40.9561 57.666 40.5117 57.7832 40.1602 58.0176C39.8184 58.252 39.5498 58.5742 39.3545 58.9844C39.1689 59.3848 39.0371 59.8486 38.959 60.376C38.8809 60.9033 38.8418 61.46 38.8418 62.0459V62.6025C38.8418 63.1885 38.9199 63.7207 39.0762 64.1992C39.2422 64.6777 39.4766 65.0879 39.7793 65.4297C40.0918 65.7617 40.4629 66.0205 40.8926 66.2061C41.332 66.3916 41.8301 66.4844 42.3867 66.4844C43.0605 66.4844 43.7246 66.3574 44.3789 66.1035C45.0332 65.8496 45.5947 65.4297 46.0635 64.8438L48.3047 67.5098C47.9824 67.9688 47.5234 68.4131 46.9277 68.8428C46.3418 69.2725 45.6387 69.624 44.8184 69.8975C43.998 70.1611 43.0801 70.293 42.0645 70.293ZM60.9902 48.6719H65.1797L69.9404 63.5107L74.7012 48.6719H78.8906L71.6396 70H68.2412L60.9902 48.6719ZM58.4414 48.6719H62.7773L63.583 65.0195V70H58.4414V48.6719ZM77.1035 48.6719H81.4541V70H76.2979V65.0195L77.1035 48.6719ZM92.748 66.0156V59.4824C92.748 59.0332 92.6846 58.6475 92.5576 58.3252C92.4307 58.0029 92.2305 57.7539 91.957 57.5781C91.6836 57.3926 91.3174 57.2998 90.8584 57.2998C90.4873 57.2998 90.1699 57.3633 89.9062 57.4902C89.6426 57.6172 89.4424 57.8076 89.3057 58.0615C89.1689 58.3154 89.1006 58.6377 89.1006 59.0283H84.1641C84.1641 58.2959 84.3252 57.6172 84.6475 56.9922C84.9795 56.3574 85.4482 55.8057 86.0537 55.3369C86.6689 54.8682 87.4014 54.5068 88.251 54.2529C89.1104 53.9893 90.0674 53.8574 91.1221 53.8574C92.3818 53.8574 93.5049 54.0674 94.4912 54.4873C95.4873 54.9072 96.2734 55.5371 96.8496 56.377C97.4258 57.207 97.7139 58.252 97.7139 59.5117V66.001C97.7139 67.0361 97.7725 67.8223 97.8896 68.3594C98.0068 68.8867 98.1729 69.3506 98.3877 69.751V70H93.4365C93.2021 69.5117 93.0264 68.916 92.9092 68.2129C92.8018 67.5 92.748 66.7676 92.748 66.0156ZM93.3486 60.3174L93.3779 62.9541H91.1953C90.7363 62.9541 90.3457 63.0176 90.0234 63.1445C89.7109 63.2715 89.457 63.4473 89.2617 63.6719C89.0762 63.8867 88.9395 64.1309 88.8516 64.4043C88.7734 64.6777 88.7344 64.9658 88.7344 65.2686C88.7344 65.5615 88.8027 65.8252 88.9395 66.0596C89.0859 66.2842 89.2812 66.46 89.5254 66.5869C89.7695 66.7139 90.043 66.7773 90.3457 66.7773C90.8926 66.7773 91.3564 66.6748 91.7373 66.4697C92.1279 66.2549 92.4258 65.9961 92.6309 65.6934C92.8359 65.3906 92.9385 65.1074 92.9385 64.8438L94.0225 66.8652C93.8271 67.2559 93.6025 67.6514 93.3486 68.0518C93.1045 68.4521 92.7969 68.8232 92.4258 69.165C92.0645 69.4971 91.6201 69.7705 91.0928 69.9854C90.5654 70.1904 89.9258 70.293 89.1738 70.293C88.1973 70.293 87.2988 70.0928 86.4785 69.6924C85.668 69.292 85.0186 68.7354 84.5303 68.0225C84.042 67.2998 83.7979 66.4697 83.7979 65.5322C83.7979 64.7119 83.9443 63.9795 84.2373 63.335C84.54 62.6904 84.9941 62.1436 85.5996 61.6943C86.2051 61.2451 86.9766 60.9033 87.9141 60.6689C88.8516 60.4346 89.9551 60.3174 91.2246 60.3174H93.3486ZM105.302 57.5342V70H100.365V54.1504H104.994L105.302 57.5342ZM104.716 61.5332L103.559 61.5625C103.559 60.3516 103.705 59.2725 103.998 58.3252C104.291 57.3682 104.706 56.5576 105.243 55.8936C105.78 55.2295 106.42 54.7266 107.162 54.3848C107.914 54.0332 108.749 53.8574 109.667 53.8574C110.399 53.8574 111.068 53.9648 111.674 54.1797C112.289 54.3945 112.816 54.7412 113.256 55.2197C113.705 55.6982 114.047 56.333 114.281 57.124C114.525 57.9053 114.647 58.8721 114.647 60.0244V70H109.682V60.0098C109.682 59.375 109.594 58.8916 109.418 58.5596C109.242 58.2178 108.988 57.9834 108.656 57.8564C108.324 57.7295 107.919 57.666 107.44 57.666C106.933 57.666 106.503 57.7637 106.151 57.959C105.8 58.1543 105.517 58.4277 105.302 58.7793C105.097 59.1211 104.945 59.5264 104.848 59.9951C104.76 60.4639 104.716 60.9766 104.716 61.5332ZM125.619 66.0156V59.4824C125.619 59.0332 125.556 58.6475 125.429 58.3252C125.302 58.0029 125.102 57.7539 124.828 57.5781C124.555 57.3926 124.188 57.2998 123.729 57.2998C123.358 57.2998 123.041 57.3633 122.777 57.4902C122.514 57.6172 122.313 57.8076 122.177 58.0615C122.04 58.3154 121.972 58.6377 121.972 59.0283H117.035C117.035 58.2959 117.196 57.6172 117.519 56.9922C117.851 56.3574 118.319 55.8057 118.925 55.3369C119.54 54.8682 120.272 54.5068 121.122 54.2529C121.981 53.9893 122.938 53.8574 123.993 53.8574C125.253 53.8574 126.376 54.0674 127.362 54.4873C128.358 54.9072 129.145 55.5371 129.721 56.377C130.297 57.207 130.585 58.252 130.585 59.5117V66.001C130.585 67.0361 130.644 67.8223 130.761 68.3594C130.878 68.8867 131.044 69.3506 131.259 69.751V70H126.308C126.073 69.5117 125.897 68.916 125.78 68.2129C125.673 67.5 125.619 66.7676 125.619 66.0156ZM126.22 60.3174L126.249 62.9541H124.066C123.607 62.9541 123.217 63.0176 122.895 63.1445C122.582 63.2715 122.328 63.4473 122.133 63.6719C121.947 63.8867 121.811 64.1309 121.723 64.4043C121.645 64.6777 121.605 64.9658 121.605 65.2686C121.605 65.5615 121.674 65.8252 121.811 66.0596C121.957 66.2842 122.152 66.46 122.396 66.5869C122.641 66.7139 122.914 66.7773 123.217 66.7773C123.764 66.7773 124.228 66.6748 124.608 66.4697C124.999 66.2549 125.297 65.9961 125.502 65.6934C125.707 65.3906 125.81 65.1074 125.81 64.8438L126.894 66.8652C126.698 67.2559 126.474 67.6514 126.22 68.0518C125.976 68.4521 125.668 68.8232 125.297 69.165C124.936 69.4971 124.491 69.7705 123.964 69.9854C123.437 70.1904 122.797 70.293 122.045 70.293C121.068 70.293 120.17 70.0928 119.35 69.6924C118.539 69.292 117.89 68.7354 117.401 68.0225C116.913 67.2998 116.669 66.4697 116.669 65.5322C116.669 64.7119 116.815 63.9795 117.108 63.335C117.411 62.6904 117.865 62.1436 118.471 61.6943C119.076 61.2451 119.848 60.9033 120.785 60.6689C121.723 60.4346 122.826 60.3174 124.096 60.3174H126.22ZM143.285 54.1504H147.768V69.3848C147.768 70.8496 147.431 72.0898 146.757 73.1055C146.083 74.1309 145.141 74.9072 143.93 75.4346C142.729 75.9717 141.322 76.2402 139.711 76.2402C138.998 76.2402 138.271 76.1475 137.528 75.9619C136.786 75.7861 136.093 75.5225 135.448 75.1709C134.804 74.8193 134.262 74.3848 133.822 73.8672L135.888 70.9668C136.288 71.416 136.791 71.7969 137.396 72.1094C138.002 72.4316 138.715 72.5928 139.535 72.5928C140.248 72.5928 140.844 72.4658 141.322 72.2119C141.811 71.958 142.182 71.5869 142.436 71.0986C142.689 70.6201 142.816 70.0391 142.816 69.3555V57.9004L143.285 54.1504ZM132.753 62.2656V61.958C132.753 60.7568 132.899 59.6631 133.192 58.6768C133.495 57.6807 133.925 56.8262 134.481 56.1133C135.048 55.3906 135.731 54.834 136.532 54.4434C137.333 54.0527 138.236 53.8574 139.242 53.8574C140.326 53.8574 141.215 54.0674 141.908 54.4873C142.611 54.8975 143.173 55.4736 143.593 56.2158C144.022 56.958 144.354 57.8271 144.589 58.8232C144.833 59.8096 145.038 60.874 145.204 62.0166V62.3828C145.038 63.457 144.809 64.4727 144.516 65.4297C144.232 66.377 143.861 67.2168 143.402 67.9492C142.943 68.6816 142.367 69.2578 141.674 69.6777C140.99 70.0879 140.17 70.293 139.213 70.293C138.217 70.293 137.318 70.0928 136.518 69.6924C135.727 69.292 135.048 68.7305 134.481 68.0078C133.925 67.2852 133.495 66.4355 133.192 65.459C132.899 64.4824 132.753 63.418 132.753 62.2656ZM137.689 61.958V62.2656C137.689 62.8613 137.743 63.4131 137.851 63.9209C137.968 64.4287 138.144 64.8779 138.378 65.2686C138.612 65.6494 138.9 65.9473 139.242 66.1621C139.594 66.377 140.004 66.4844 140.473 66.4844C141.186 66.4844 141.762 66.333 142.201 66.0303C142.641 65.7275 142.958 65.2979 143.153 64.7412C143.349 64.1846 143.432 63.5303 143.402 62.7783V61.6211C143.422 60.9766 143.378 60.4102 143.271 59.9219C143.163 59.4238 142.992 59.0088 142.758 58.6768C142.533 58.3447 142.23 58.0957 141.85 57.9297C141.479 57.7539 141.029 57.666 140.502 57.666C140.043 57.666 139.638 57.7734 139.286 57.9883C138.935 58.2031 138.642 58.5059 138.407 58.8965C138.173 59.2773 137.992 59.7314 137.865 60.2588C137.748 60.7764 137.689 61.3428 137.689 61.958ZM158.285 70.293C156.996 70.293 155.844 70.0928 154.828 69.6924C153.812 69.2822 152.953 68.7207 152.25 68.0078C151.557 67.2949 151.024 66.4746 150.653 65.5469C150.292 64.6191 150.111 63.6377 150.111 62.6025V62.0459C150.111 60.8838 150.272 59.8096 150.595 58.8232C150.917 57.8271 151.396 56.958 152.03 56.2158C152.665 55.4736 153.461 54.8975 154.418 54.4873C155.375 54.0674 156.488 53.8574 157.758 53.8574C158.881 53.8574 159.887 54.0381 160.775 54.3994C161.664 54.7607 162.416 55.2783 163.031 55.9521C163.656 56.626 164.13 57.4414 164.452 58.3984C164.784 59.3555 164.95 60.4297 164.95 61.6211V63.6279H152.001V60.5371H160.131V60.1562C160.141 59.6289 160.048 59.1797 159.853 58.8086C159.667 58.4375 159.394 58.1543 159.032 57.959C158.671 57.7637 158.231 57.666 157.714 57.666C157.177 57.666 156.732 57.7832 156.381 58.0176C156.039 58.252 155.771 58.5742 155.575 58.9844C155.39 59.3848 155.258 59.8486 155.18 60.376C155.102 60.9033 155.062 61.46 155.062 62.0459V62.6025C155.062 63.1885 155.141 63.7207 155.297 64.1992C155.463 64.6777 155.697 65.0879 156 65.4297C156.312 65.7617 156.684 66.0205 157.113 66.2061C157.553 66.3916 158.051 66.4844 158.607 66.4844C159.281 66.4844 159.945 66.3574 160.6 66.1035C161.254 65.8496 161.815 65.4297 162.284 64.8438L164.525 67.5098C164.203 67.9688 163.744 68.4131 163.148 68.8428C162.562 69.2725 161.859 69.624 161.039 69.8975C160.219 70.1611 159.301 70.293 158.285 70.293ZM171.938 58.0762V70H167.001V54.1504H171.615L171.938 58.0762ZM176.625 54.0332L176.537 58.6182C176.342 58.5986 176.078 58.5742 175.746 58.5449C175.414 58.5156 175.136 58.501 174.911 58.501C174.335 58.501 173.837 58.5693 173.417 58.7061C173.007 58.833 172.665 59.0283 172.392 59.292C172.128 59.5459 171.933 59.8682 171.806 60.2588C171.688 60.6494 171.635 61.1035 171.645 61.6211L170.751 61.0352C170.751 59.9707 170.854 59.0039 171.059 58.1348C171.273 57.2559 171.576 56.499 171.967 55.8643C172.357 55.2197 172.831 54.7266 173.388 54.3848C173.944 54.0332 174.569 53.8574 175.263 53.8574C175.507 53.8574 175.746 53.8721 175.98 53.9014C176.225 53.9307 176.439 53.9746 176.625 54.0332Z" fill="#4F545B"/>
<path d="M36.79 41H35.285L29.179 28.702H12.065L6.08803 41H4.58303L20.665 7.976L36.79 41ZM28.663 27.455L20.579 11.072L12.667 27.455H28.663ZM40.8955 21.65H42.2715V25.95C42.9022 24.5167 43.9772 23.37 45.4965 22.51C47.0159 21.6213 48.6929 21.177 50.5275 21.177C52.9069 21.177 54.7845 21.9367 56.1605 23.456C57.5652 24.9467 58.2675 27.0393 58.2675 29.734V41H56.8915V29.734C56.8915 27.412 56.3182 25.606 55.1715 24.316C54.0535 23.026 52.4769 22.381 50.4415 22.381C48.9509 22.381 47.5749 22.725 46.3135 23.413C45.0809 24.0723 44.0919 24.9897 43.3465 26.165C42.6299 27.3403 42.2715 28.6733 42.2715 30.164V41H40.8955V21.65ZM72.8133 41.473C70.9499 41.473 69.2299 41.0143 67.6533 40.097C66.1053 39.1797 64.8726 37.947 63.9553 36.399C63.0379 34.851 62.5793 33.1597 62.5793 31.325C62.5793 29.4903 63.0379 27.799 63.9553 26.251C64.8726 24.703 66.1053 23.4703 67.6533 22.553C69.2299 21.6357 70.9499 21.177 72.8133 21.177C74.6193 21.177 76.3393 21.6643 77.9733 22.639C79.6073 23.585 80.8113 24.832 81.5853 26.38V8.75H82.9613V41H81.5853V36.313C80.7253 37.861 79.4783 39.108 77.8443 40.054C76.2389 41 74.5619 41.473 72.8133 41.473ZM72.7703 40.269C74.3469 40.269 75.8089 39.8677 77.1563 39.065C78.5323 38.2337 79.6216 37.1443 80.4243 35.797C81.2556 34.421 81.6713 32.9447 81.6713 31.368C81.6713 29.7913 81.2556 28.315 80.4243 26.939C79.6216 25.563 78.5323 24.4593 77.1563 23.628C75.8089 22.7967 74.3469 22.381 72.7703 22.381C71.1936 22.381 69.7316 22.7967 68.3843 23.628C67.0369 24.4307 65.9619 25.52 65.1593 26.896C64.3566 28.272 63.9553 29.7483 63.9553 31.325C63.9553 32.9303 64.3423 34.421 65.1163 35.797C65.9189 37.1443 66.9939 38.2337 68.3413 39.065C69.7173 39.8677 71.1936 40.269 72.7703 40.269ZM88.3887 21.65H89.7647V26.122C90.338 24.7173 91.1694 23.6137 92.2587 22.811C93.3767 22.0083 94.638 21.607 96.0427 21.607C96.9314 21.607 97.8344 21.7933 98.7517 22.166V23.757C97.9204 23.1263 96.9887 22.811 95.9567 22.811C94.9247 22.811 93.9214 23.1263 92.9467 23.757C92.0007 24.3877 91.2267 25.2333 90.6247 26.294C90.0514 27.3547 89.7647 28.487 89.7647 29.691V41H88.3887V21.65ZM110.062 41.688C108.113 41.688 106.35 41.215 104.773 40.269C103.197 39.2943 101.964 38.0187 101.075 36.442C100.187 34.8367 99.7424 33.1023 99.7424 31.239C99.7424 29.4043 100.187 27.6987 101.075 26.122C101.993 24.5453 103.225 23.2983 104.773 22.381C106.35 21.435 108.099 20.962 110.019 20.962C111.911 20.962 113.631 21.435 115.179 22.381C116.756 23.2983 117.989 24.5453 118.877 26.122C119.766 27.6987 120.21 29.4043 120.21 31.239C120.21 33.1597 119.78 34.9227 118.92 36.528C118.06 38.1047 116.856 39.366 115.308 40.312C113.789 41.2293 112.04 41.688 110.062 41.688ZM110.062 40.484C111.696 40.484 113.187 40.0683 114.534 39.237C115.882 38.4057 116.928 37.302 117.673 35.926C118.447 34.5213 118.834 32.9877 118.834 31.325C118.834 29.691 118.447 28.1717 117.673 26.767C116.899 25.3623 115.839 24.2443 114.491 23.413C113.144 22.5817 111.653 22.166 110.019 22.166C108.385 22.166 106.88 22.596 105.504 23.456C104.157 24.2873 103.082 25.4053 102.279 26.81C101.505 28.2147 101.118 29.734 101.118 31.368C101.118 33.002 101.505 34.5213 102.279 35.926C103.082 37.302 104.157 38.4057 105.504 39.237C106.88 40.0683 108.4 40.484 110.062 40.484Z" fill="#0CC4D0"/>
<g filter="url(#filter0_d_135_2)">
<ellipse cx="144.994" cy="29.595" rx="20.9939" ry="16.8486" fill="url(#paint0_linear_135_2)"/>
<path d="M132.291 10.8743C128.885 14.1302 124.134 21.1707 124.134 28.659C136.971 30.3773 166.378 31.2561 165.72 27.4555C163.046 11.9989 145.631 16.5515 149.628 7.18505C153.418 -1.69525 137.907 5.50557 132.291 10.8743Z" fill="url(#paint1_linear_135_2)"/>
</g>
<g filter="url(#filter1_i_135_2)">
<ellipse cx="144.86" cy="29.595" rx="16.0463" ry="9.62777" fill="white"/>
</g>
<g filter="url(#filter2_d_135_2)">
<ellipse cx="137.238" cy="28.9264" rx="2.8081" ry="3.34297" fill="#0CA1D0"/>
</g>
<g filter="url(#filter3_d_135_2)">
<ellipse cx="153.017" cy="28.9264" rx="2.8081" ry="3.34297" fill="#0CA1D0"/>
</g>
<defs>
<filter id="filter0_d_135_2" x="120" y="3" width="49.9878" height="51.4436" filterUnits="userSpaceOnUse" color-interpolation-filters="sRGB">
<feFlood flood-opacity="0" result="BackgroundImageFix"/>
<feColorMatrix in="SourceAlpha" type="matrix" values="0 0 0 0 0 0 0 0 0 0 0 0 0 0 0 0 0 0 127 0" result="hardAlpha"/>
<feOffset dy="4"/>
<feGaussianBlur stdDeviation="2"/>
<feComposite in2="hardAlpha" operator="out"/>
<feColorMatrix type="matrix" values="0 0 0 0 0 0 0 0 0 0 0 0 0 0 0 0 0 0 0.25 0"/>
<feBlend mode="normal" in2="BackgroundImageFix" result="effect1_dropShadow_135_2"/>
<feBlend mode="normal" in="SourceGraphic" in2="effect1_dropShadow_135_2" result="shape"/>
</filter>
<filter id="filter1_i_135_2" x="128.814" y="19.9672" width="32.0925" height="19.2555" filterUnits="userSpaceOnUse" color-interpolation-filters="sRGB">
<feFlood flood-opacity="0" result="BackgroundImageFix"/>
<feBlend mode="normal" in="SourceGraphic" in2="BackgroundImageFix" result="shape"/>
<feColorMatrix in="SourceAlpha" type="matrix" values="0 0 0 0 0 0 0 0 0 0 0 0 0 0 0 0 0 0 127 0" result="hardAlpha"/>
<feMorphology radius="2" operator="erode" in="SourceAlpha" result="effect1_innerShadow_135_2"/>
<feOffset/>
<feGaussianBlur stdDeviation="5"/>
<feComposite in2="hardAlpha" operator="arithmetic" k2="-1" k3="1"/>
<feColorMatrix type="matrix" values="0 0 0 0 0 0 0 0 0 0 0 0 0 0 0 0 0 0 0.25 0"/>
<feBlend mode="normal" in2="shape" result="effect1_innerShadow_135_2"/>
</filter>
<filter id="filter2_d_135_2" x="132.43" y="23.5834" width="13.6162" height="14.6859" filterUnits="userSpaceOnUse" color-interpolation-filters="sRGB">
<feFlood flood-opacity="0" result="BackgroundImageFix"/>
<feColorMatrix in="SourceAlpha" type="matrix" values="0 0 0 0 0 0 0 0 0 0 0 0 0 0 0 0 0 0 127 0" result="hardAlpha"/>
<feOffset dx="2" dy="2"/>
<feGaussianBlur stdDeviation="2"/>
<feComposite in2="hardAlpha" operator="out"/>
<feColorMatrix type="matrix" values="0 0 0 0 0 0 0 0 0 0 0 0 0 0 0 0 0 0 0.25 0"/>
<feBlend mode="normal" in2="BackgroundImageFix" result="effect1_dropShadow_135_2"/>
<feBlend mode="normal" in="SourceGraphic" in2="effect1_dropShadow_135_2" result="shape"/>
</filter>
<filter id="filter3_d_135_2" x="148.209" y="23.5834" width="13.6162" height="14.6859" filterUnits="userSpaceOnUse" color-interpolation-filters="sRGB">
<feFlood flood-opacity="0" result="BackgroundImageFix"/>
<feColorMatrix in="SourceAlpha" type="matrix" values="0 0 0 0 0 0 0 0 0 0 0 0 0 0 0 0 0 0 127 0" result="hardAlpha"/>
<feOffset dx="2" dy="2"/>
<feGaussianBlur stdDeviation="2"/>
<feComposite in2="hardAlpha" operator="out"/>
<feColorMatrix type="matrix" values="0 0 0 0 0 0 0 0 0 0 0 0 0 0 0 0 0 0 0.25 0"/>
<feBlend mode="normal" in2="BackgroundImageFix" result="effect1_dropShadow_135_2"/>
<feBlend mode="normal" in="SourceGraphic" in2="effect1_dropShadow_135_2" result="shape"/>
</filter>
<linearGradient id="paint0_linear_135_2" x1="144.994" y1="12.7464" x2="144.994" y2="46.4436" gradientUnits="userSpaceOnUse">
<stop offset="0.13648" stop-color="#70F9D0"/>
<stop offset="0.741287" stop-color="#0CA1D0" stop-opacity="0.91"/>
</linearGradient>
<linearGradient id="paint1_linear_135_2" x1="144.933" y1="2.96491" x2="144.933" y2="29.8217" gradientUnits="userSpaceOnUse">
<stop offset="0.13648" stop-color="#70F9D0"/>
<stop offset="0.741287" stop-color="#0CA1D0" stop-opacity="0.91"/>
</linearGradient>
</defs>
</svg>
